<?xml version="1.0" standalone="no"?>
<svg xmlns:xlink="http://www.w3.org/1999/xlink" id="wave" style="transform:rotate(180deg); transition: 0.3s" viewBox="0 0 1440 360" version="1.1" xmlns="http://www.w3.org/2000/svg"><defs><linearGradient id="sw-gradient-0" x1="0" x2="0" y1="1" y2="0"><stop stop-color="rgba(217, 94, 50, 1)" offset="0%"/><stop stop-color="rgba(217, 94, 50, 1)" offset="100%"/></linearGradient></defs><path style="transform:translate(0, 0px); opacity:1" fill="url(#sw-gradient-0)" d="M0,324L12,288C24,252,48,180,72,180C96,180,120,252,144,234C168,216,192,108,216,54C240,0,264,0,288,18C312,36,336,72,360,84C384,96,408,84,432,102C456,120,480,168,504,192C528,216,552,216,576,192C600,168,624,120,648,96C672,72,696,72,720,102C744,132,768,192,792,216C816,240,840,228,864,186C888,144,912,72,936,84C960,96,984,192,1008,240C1032,288,1056,288,1080,240C1104,192,1128,96,1152,72C1176,48,1200,96,1224,96C1248,96,1272,48,1296,24C1320,0,1344,0,1368,30C1392,60,1416,120,1440,156C1464,192,1488,204,1512,204C1536,204,1560,192,1584,162C1608,132,1632,84,1656,72C1680,60,1704,84,1716,96L1728,108L1728,360L1716,360C1704,360,1680,360,1656,360C1632,360,1608,360,1584,360C1560,360,1536,360,1512,360C1488,360,1464,360,1440,360C1416,360,1392,360,1368,360C1344,360,1320,360,1296,360C1272,360,1248,360,1224,360C1200,360,1176,360,1152,360C1128,360,1104,360,1080,360C1056,360,1032,360,1008,360C984,360,960,360,936,360C912,360,888,360,864,360C840,360,816,360,792,360C768,360,744,360,720,360C696,360,672,360,648,360C624,360,600,360,576,360C552,360,528,360,504,360C480,360,456,360,432,360C408,360,384,360,360,360C336,360,312,360,288,360C264,360,240,360,216,360C192,360,168,360,144,360C120,360,96,360,72,360C48,360,24,360,12,360L0,360Z"/></svg>