<?xml version="1.0" standalone="no"?>
<svg xmlns:xlink="http://www.w3.org/1999/xlink" id="wave" style="transform:rotate(0deg); transition: 0.3s" viewBox="0 0 1440 480" version="1.1" xmlns="http://www.w3.org/2000/svg"><defs><linearGradient id="sw-gradient-0" x1="0" x2="0" y1="1" y2="0"><stop stop-color="rgba(217, 94, 50, 1)" offset="0%"/><stop stop-color="rgba(217, 94, 50, 1)" offset="100%"/></linearGradient></defs><path style="transform:translate(0, 0px); opacity:1" fill="url(#sw-gradient-0)" d="M0,432L10,384C20,336,40,240,60,240C80,240,100,336,120,312C140,288,160,144,180,72C200,0,220,0,240,24C260,48,280,96,300,112C320,128,340,112,360,136C380,160,400,224,420,256C440,288,460,288,480,256C500,224,520,160,540,128C560,96,580,96,600,136C620,176,640,256,660,288C680,320,700,304,720,248C740,192,760,96,780,112C800,128,820,256,840,320C860,384,880,384,900,320C920,256,940,128,960,96C980,64,1000,128,1020,128C1040,128,1060,64,1080,32C1100,0,1120,0,1140,40C1160,80,1180,160,1200,208C1220,256,1240,272,1260,272C1280,272,1300,256,1320,216C1340,176,1360,112,1380,96C1400,80,1420,112,1430,128L1440,144L1440,480L1430,480C1420,480,1400,480,1380,480C1360,480,1340,480,1320,480C1300,480,1280,480,1260,480C1240,480,1220,480,1200,480C1180,480,1160,480,1140,480C1120,480,1100,480,1080,480C1060,480,1040,480,1020,480C1000,480,980,480,960,480C940,480,920,480,900,480C880,480,860,480,840,480C820,480,800,480,780,480C760,480,740,480,720,480C700,480,680,480,660,480C640,480,620,480,600,480C580,480,560,480,540,480C520,480,500,480,480,480C460,480,440,480,420,480C400,480,380,480,360,480C340,480,320,480,300,480C280,480,260,480,240,480C220,480,200,480,180,480C160,480,140,480,120,480C100,480,80,480,60,480C40,480,20,480,10,480L0,480Z"/></svg>